<svg xmlns="http://www.w3.org/2000/svg" viewBox="0 0 64 64" role="img" aria-label="纸片人女友聊天图标">
  <defs>
    <linearGradient id="bg" x1="10" y1="6" x2="54" y2="58" gradientUnits="userSpaceOnUse">
      <stop stop-color="#fff4f8"/>
      <stop offset="0.48" stop-color="#f8c9d9"/>
      <stop offset="1" stop-color="#cfe7dc"/>
    </linearGradient>
    <linearGradient id="heart" x1="18" y1="17" x2="47" y2="48" gradientUnits="userSpaceOnUse">
      <stop stop-color="#ff89ac"/>
      <stop offset="0.52" stop-color="#e95786"/>
      <stop offset="1" stop-color="#bd5b79"/>
    </linearGradient>
    <filter id="softShadow" x="-20%" y="-20%" width="140%" height="150%" color-interpolation-filters="sRGB">
      <feDropShadow dx="0" dy="3" stdDeviation="3" flood-color="#9f4968" flood-opacity="0.22"/>
    </filter>
  </defs>

  <rect width="64" height="64" rx="18" fill="url(#bg)"/>
  <path
    d="M18 18h28a9 9 0 0 1 9 9v13a9 9 0 0 1-9 9H32.5L23 55v-6h-5a9 9 0 0 1-9-9V27a9 9 0 0 1 9-9Z"
    fill="#fffafd"
    filter="url(#softShadow)"
  />
  <path
    d="M32 46.5 17.7 32.9c-4.4-4.2-2.6-12 3.4-13.3 3.5-.8 6.7.9 8.5 3.8L32 27l2.4-3.6c1.8-2.9 5-4.6 8.5-3.8 6 1.3 7.8 9.1 3.4 13.3L32 46.5Z"
    fill="url(#heart)"
  />
  <path d="M32 46.5 17.7 32.9 32 27Z" fill="#ff9eb8" opacity="0.72"/>
  <path d="M32 46.5 46.3 32.9 32 27Z" fill="#cf496f" opacity="0.66"/>
  <path d="M17.7 32.9 29.6 23.4 32 27Z" fill="#ffd1dd" opacity="0.64"/>
  <path d="M46.3 32.9 34.4 23.4 32 27Z" fill="#e7628c" opacity="0.58"/>
  <path
    d="M20.2 13.5c1.7-3.2 4.8-4 7.6-3.3M45.6 50.8c3.1-.5 5.2-2.2 6.1-5.3"
    fill="none"
    stroke="#fff8fb"
    stroke-linecap="round"
    stroke-width="3"
    opacity="0.82"
  />
</svg>
